<?xml version="1.0" standalone="no"?>
<!DOCTYPE svg PUBLIC "-//W3C//DTD SVG 20010904//EN"
 "http://www.w3.org/TR/2001/REC-SVG-20010904/DTD/svg10.dtd">
<svg version="1.0" xmlns="http://www.w3.org/2000/svg"
 width="408.000000pt" height="408.000000pt" viewBox="0 0 408.000000 408.000000"
 preserveAspectRatio="xMidYMid meet">
<metadata>
Created by potrace 1.14, written by Peter Selinger 2001-2017
</metadata>
<g transform="translate(0.000000,408.000000) scale(0.100000,-0.100000)"
fill="#000000" stroke="none">
<path d="M1329 3725 c-85 -17 -139 -45 -192 -100 -150 -153 -182 -446 -81
-730 46 -129 104 -218 211 -322 70 -69 132 -109 208 -135 41 -14 49 -21 47
-37 -2 -12 -1 -21 1 -21 25 0 222 79 262 105 108 69 189 172 222 284 20 67 22
93 23 231 1 121 -16 217 -58 321 -71 178 -176 307 -305 375 -67 35 -77 37
-172 40 -55 1 -130 -4 -166 -11z m-44 -82 c-58 -58 -102 -155 -123 -273 -11
-57 -9 -261 2 -320 33 -169 114 -325 227 -439 56 -55 102 -86 176 -117 l58
-25 -70 4 c-102 6 -171 42 -270 142 -54 54 -97 110 -132 170 l-51 90 24 22
c36 33 32 54 -6 33 -16 -9 -22 -6 -34 17 -47 93 -57 352 -18 474 39 118 120
215 205 245 43 15 45 10 12 -23z"/>
<path d="M2550 3707 c-90 -32 -148 -68 -213 -133 -70 -68 -106 -120 -162 -232
-73 -147 -103 -278 -99 -433 4 -158 26 -234 104 -353 52 -80 66 -89 183 -127
82 -25 187 -23 290 6 139 40 306 209 391 396 95 207 111 456 40 616 -45 102
-166 201 -319 258 -81 31 -131 31 -215 2z m184 -34 c28 -5 29 -6 11 -19 -10
-8 -26 -14 -36 -14 -37 0 -164 -75 -229 -136 -163 -154 -266 -383 -275 -609
-5 -122 15 -220 65 -317 22 -43 36 -78 31 -78 -14 0 -101 100 -121 140 -52
102 -76 273 -56 405 11 73 15 85 34 85 9 0 24 4 31 9 12 8 10 12 -12 22 -34
15 -33 18 41 169 48 99 67 126 137 196 125 127 244 173 379 147z"/>
<path d="M326 3045 c-69 -28 -110 -58 -202 -151 -106 -104 -119 -135 -118
-264 1 -87 5 -116 27 -173 72 -187 242 -364 452 -470 111 -55 196 -77 314 -81
182 -6 301 54 377 191 21 37 49 71 69 83 30 18 51 47 42 57 -2 2 -17 -7 -32
-19 l-28 -22 7 28 c10 41 9 153 -3 212 -47 240 -275 486 -541 583 -90 32 -136
42 -225 45 -69 3 -93 0 -139 -19z m-211 -269 c-6 -106 35 -250 104 -356 43
-67 186 -213 261 -267 165 -118 400 -171 550 -124 l65 20 -33 -28 c-55 -47
-131 -66 -262 -66 -104 0 -124 3 -203 32 -402 143 -661 557 -508 811 14 23 27
42 28 42 1 0 0 -29 -2 -64z"/>
<path d="M3628 2985 c-2 -1 -31 -5 -65 -8 -69 -7 -188 -44 -266 -83 -201 -102
-347 -252 -439 -451 -30 -63 -32 -76 -33 -185 -2 -110 0 -121 24 -163 58 -99
185 -201 289 -231 252 -73 624 75 817 326 86 112 126 226 121 344 -4 90 -65
244 -124 314 -49 59 -136 106 -222 122 -36 6 -73 13 -82 15 -9 1 -18 2 -20 0z
m159 -74 c28 -9 70 -32 94 -51 80 -62 79 -74 -3 -48 -194 61 -466 4 -659 -138
-201 -149 -342 -381 -322 -531 7 -53 -13 -33 -27 28 -29 120 12 264 116 404
77 104 125 147 160 143 26 -3 29 0 29 25 1 34 24 53 110 95 167 82 200 90 351
90 69 0 118 -6 151 -17z"/>
<path d="M1888 2513 c-18 -5 -24 -19 -10 -26 13 -7 73 13 67 23 -6 10 -27 11
-57 3z"/>
<path d="M2045 2510 c-7 -11 37 -17 78 -11 23 3 -9 21 -38 21 -19 0 -37 -4
-40 -10z"/>
<path d="M1700 2345 c0 -20 -28 -43 -97 -80 -191 -100 -335 -240 -430 -415
-18 -33 -33 -66 -33 -72 0 -15 -43 -78 -53 -78 -16 0 -105 -45 -167 -85 -310
-199 -395 -606 -193 -922 104 -163 263 -259 523 -318 41 -9 84 -19 95 -21 45
-11 213 -13 260 -3 28 6 101 35 164 66 108 53 118 55 205 59 142 6 208 13 280
29 l65 15 99 -50 c126 -63 207 -82 337 -79 308 7 530 186 660 532 24 66 44
192 39 246 -2 14 -5 49 -8 76 -12 134 -102 290 -218 382 -29 24 -58 47 -64 51
-21 18 -141 70 -189 82 -75 20 -78 22 -143 128 -99 161 -228 282 -397 372 -98
53 -105 58 -105 81 0 23 -8 23 -35 3 -11 -8 -30 -12 -45 -9 -14 3 -36 8 -50
11 -63 14 -282 13 -371 -2 -84 -15 -93 -15 -101 0 -11 20 -28 21 -28 1z m420
-39 c75 -7 180 -36 246 -67 35 -16 68 -29 74 -29 13 0 134 -88 175 -127 54
-53 145 -156 145 -166 0 -5 14 -29 30 -54 53 -78 66 -128 46 -174 -6 -14 5
-19 63 -32 39 -9 88 -28 110 -42 23 -14 48 -25 57 -25 23 0 184 -166 209 -215
11 -22 25 -45 32 -52 15 -16 19 -29 39 -128 18 -87 21 -155 11 -225 -9 -65
-13 -81 -30 -120 -8 -19 -21 -51 -28 -69 -7 -19 -25 -49 -39 -65 -14 -17 -35
-45 -46 -62 -49 -80 -221 -181 -344 -204 -67 -12 -217 -9 -285 5 -74 16 -206
84 -262 136 -40 36 -63 48 -63 32 0 -3 7 -14 16 -24 14 -16 14 -19 -9 -34 -38
-24 -114 -33 -291 -30 -125 1 -168 5 -191 17 -17 9 -46 19 -66 23 -30 6 -41 1
-84 -33 -29 -23 -84 -52 -130 -68 -72 -26 -93 -29 -205 -28 -135 0 -198 8
-245 30 -85 41 -151 85 -210 142 -51 49 -74 81 -110 155 -24 50 -47 108 -50
127 -3 19 -11 53 -17 75 -10 38 -6 152 8 212 3 15 14 46 24 68 9 22 20 52 24
67 3 14 21 46 39 70 18 24 43 60 56 81 13 21 36 44 53 53 16 8 49 30 73 49 24
18 82 47 129 65 l84 32 16 57 c9 31 28 77 44 101 15 25 32 56 39 70 12 28 161
200 173 200 5 0 32 20 62 44 66 54 186 111 299 141 113 31 178 35 329 21z"/>
<path d="M1757 2183 c-3 -4 1 -23 8 -41 17 -40 40 -44 30 -4 -7 31 -30 58 -38
45z"/>
<path d="M2240 2171 c-11 -22 -14 -61 -4 -61 13 0 33 35 34 58 0 27 -16 29
-30 3z"/>
<path d="M1810 1991 c0 -10 9 -29 20 -42 l19 -24 1 23 c0 28 -17 62 -30 62 -6
0 -10 -9 -10 -19z"/>
<path d="M2186 1994 c-3 -9 -6 -28 -6 -42 1 -26 1 -26 15 -8 16 22 20 66 6 66
-5 0 -12 -7 -15 -16z"/>
<path d="M1874 1836 c-9 -22 7 -71 21 -65 11 5 8 45 -5 69 -7 13 -10 12 -16
-4z"/>
<path d="M2131 1826 c-13 -32 -11 -61 3 -61 14 0 24 47 16 70 -7 18 -9 17 -19
-9z"/>
<path d="M1218 1696 c-24 -17 -23 -26 3 -26 28 0 61 19 54 31 -9 13 -37 11
-57 -5z"/>
<path d="M2674 1696 c-10 -8 -16 -18 -11 -22 10 -10 59 8 65 24 5 17 -30 15
-54 -2z"/>
<path d="M1384 1675 c22 -16 76 -20 76 -6 0 12 -26 21 -63 21 -30 -1 -31 -1
-13 -15z"/>
<path d="M1928 1663 c-5 -20 11 -63 23 -63 16 0 17 16 4 48 -16 36 -22 40 -27
15z"/>
<path d="M2070 1645 c-5 -14 -7 -32 -4 -40 6 -14 8 -13 20 2 16 21 18 63 4 63
-6 0 -15 -11 -20 -25z"/>
<path d="M2500 1655 c-20 -11 -22 -15 -9 -20 20 -8 72 12 64 25 -8 13 -25 12
-55 -5z"/>
<path d="M1550 1630 c0 -14 58 -42 65 -31 6 11 -33 41 -52 41 -7 0 -13 -4 -13
-10z"/>
<path d="M2341 1566 c-16 -16 -19 -26 -11 -31 11 -7 60 31 60 47 0 16 -27 7
-49 -16z"/>
<path d="M2899 1583 c0 -4 -2 -17 -4 -28 -2 -11 0 -27 5 -35 14 -21 29 3 22
36 -4 23 -21 44 -23 27z"/>
<path d="M1105 1560 c-3 -5 -4 -10 -1 -10 2 0 1 -13 -4 -30 -5 -17 -5 -32 0
-35 11 -7 30 27 30 54 0 23 -16 36 -25 21z"/>
<path d="M1709 1522 c14 -26 38 -45 51 -40 7 2 1 15 -14 31 -29 31 -52 37 -37
9z"/>
<path d="M1980 1486 c0 -28 20 -66 34 -66 15 0 43 67 32 77 -3 3 -12 0 -20 -6
-10 -8 -16 -9 -21 -1 -9 15 -25 12 -25 -4z"/>
<path d="M2226 1454 c-9 -8 -16 -25 -16 -37 1 -21 2 -21 25 6 37 41 28 69 -9
31z"/>
<path d="M1817 1383 c12 -33 35 -63 44 -58 10 7 -8 57 -24 67 -20 13 -27 9
-20 -9z"/>
<path d="M2910 1366 c0 -19 5 -38 10 -41 6 -4 10 10 10 34 0 23 -4 41 -10 41
-5 0 -10 -15 -10 -34z"/>
<path d="M1099 1385 c0 -6 -2 -18 -4 -29 -5 -26 5 -46 22 -46 12 0 14 7 9 32
-6 32 -25 62 -27 43z"/>
<path d="M2132 1280 c-6 -16 -7 -32 -3 -35 11 -6 31 18 36 44 6 33 -22 25 -33
-9z"/>
<path d="M1890 1211 c0 -37 10 -62 21 -55 10 6 12 45 3 68 -10 26 -24 18 -24
-13z"/>
<path d="M2880 1205 c-13 -33 -13 -55 -1 -55 13 0 19 11 25 43 6 36 -12 45
-24 12z"/>
<path d="M1128 1199 c-7 -20 11 -81 22 -74 14 9 12 48 -3 69 -11 15 -15 16
-19 5z"/>
<path d="M2099 1138 c-4 -52 -1 -78 11 -78 13 0 13 60 0 80 -8 13 -10 13 -11
-2z"/>
<path d="M2833 1052 c-15 -9 -36 -63 -27 -71 9 -9 44 38 44 60 0 21 0 22 -17
11z"/>
<path d="M1908 1038 c-6 -17 3 -58 12 -58 11 0 17 30 12 53 -5 20 -18 23 -24
5z"/>
<path d="M1190 1021 c0 -10 9 -29 20 -42 l19 -24 0 25 c0 24 -19 60 -33 60 -3
0 -6 -9 -6 -19z"/>
<path d="M2107 954 c-3 -5 -3 -21 0 -37 6 -30 33 -38 33 -9 0 23 -25 58 -33
46z"/>
<path d="M2721 877 c-28 -30 -29 -52 -1 -37 24 13 43 47 31 54 -4 3 -18 -5
-30 -17z"/>
<path d="M1280 873 c1 -19 38 -55 54 -52 16 4 15 7 -8 32 -24 26 -46 35 -46
20z"/>
<path d="M1882 868 c-16 -21 -24 -56 -13 -62 11 -7 20 4 31 44 9 31 0 40 -18
18z"/>
<path d="M2156 783 c-6 -6 25 -63 34 -63 15 0 18 14 8 35 -11 25 -32 38 -42
28z"/>
<path d="M2593 743 c-28 -19 -30 -33 -5 -33 18 0 52 29 52 43 0 12 -24 7 -47
-10z"/>
<path d="M1405 740 c-3 -5 9 -19 27 -30 39 -24 54 -7 18 22 -25 20 -36 22 -45
8z"/>
<path d="M1787 692 c-18 -20 -22 -42 -9 -42 12 0 42 34 42 48 0 17 -15 15 -33
-6z"/>
<path d="M2431 631 c-18 -14 -20 -19 -9 -24 18 -6 60 13 66 31 6 18 -29 14
-57 -7z"/>
<path d="M1550 630 c0 -14 38 -32 63 -28 20 3 19 5 -10 21 -36 19 -53 22 -53
7z"/>
<path d="M2560 2350 c0 -10 52 -40 69 -40 18 0 1 27 -25 39 -31 14 -44 14 -44
1z"/>
<path d="M1420 2342 c-20 -6 -50 -33 -50 -44 0 -15 18 -9 47 16 29 25 30 37 3
28z"/>
<path d="M2712 2238 c6 -17 55 -44 64 -35 11 11 -26 47 -48 47 -11 0 -18 -5
-16 -12z"/>
</g>
</svg>
