<svg width="400" height="400" viewBox="-146.724 -177.654 293.447 294"><path d="m0-170.654-17.547 1.104-17.27 3.294-16.72 5.433-15.908 7.486-14.845 9.421-13.547 11.206-12.035 12.817-10.334 14.223-8.47 15.407-6.472 16.347-4.372 17.029-2.204 17.442v17.582l2.204 17.442 4.372 17.029 6.472 16.347 8.47 15.407 10.334 14.223 12.035 12.817 13.547 11.206 14.845 9.421 15.908 7.486 16.72 5.433 17.27 3.294L0 109.346l17.547-1.104 17.27-3.294 16.72-5.433 15.909-7.486 14.844-9.421 13.547-11.206 12.035-12.817 10.334-14.223 8.47-15.407 6.472-16.347 4.372-17.029 2.204-17.442v-17.582l-2.204-17.442-4.372-17.029-6.472-16.347-8.47-15.407-10.334-14.223-12.035-12.817-13.547-11.206-14.844-9.421-15.909-7.486-16.72-5.433-17.27-3.294z" style="fill:#fff;stroke:none;stroke-width:1;stroke-linecap:butt;stroke-dasharray:none;stroke-linejoin:round;vector-effect:non-scaling-stroke"/><path d="m-101.118-84.848-1.716 2.487-1.254 2.812-.772 3.094-.279 3.326.22 3.507.715 3.631 1.198 3.699 1.664 3.708 2.101 3.659 2.507 3.552 2.873 3.389 3.193 3.172 3.463 2.906 3.679 2.594 3.836 2.24 3.933 1.852 3.968 1.435 3.941.994 3.851.537 3.7.074 3.491-.392 3.228-.852 2.912-1.298 2.552-1.723 2.151-2.122 1.716-2.487 1.254-2.812.773-3.094.278-3.327-.22-3.506-.715-3.631-1.198-3.699-1.663-3.708-2.102-3.659-2.506-3.552-2.873-3.389-3.193-3.172-3.463-2.906-3.679-2.594-3.836-2.241-3.934-1.852-3.968-1.434-3.94-.994-3.851-.538-3.7-.073-3.492.392-3.227.852-2.913 1.298-2.552 1.723zM-31.934-128.079l-2.85 1.003-2.667 1.538-2.444 2.049-2.18 2.528-1.883 2.966-1.556 3.358-1.205 3.697-.834 3.977-.45 4.195-.06 4.347.332 4.431.719 4.443 1.093 4.387 1.452 4.26 1.786 4.068 2.094 3.81 2.367 3.493 2.604 3.12 2.799 2.699 2.951 2.234 3.055 1.735 3.112 1.208 3.119.662 3.077.106 2.988-.453 2.85-1.003 2.667-1.538 2.444-2.049 2.18-2.528 1.883-2.966 1.556-3.358L.27-75.356l.834-3.978.45-4.195.06-4.347-.332-4.43-.719-4.444-1.093-4.386-1.452-4.261-1.786-4.068-2.094-3.81-2.367-3.492-2.604-3.121-2.799-2.698-2.951-2.235-3.055-1.734-3.111-1.208-3.12-.663-3.077-.105zM49.448-122.388l2.683 1.39 2.427 1.894 2.135 2.369 1.807 2.807 1.452 3.199 1.074 3.542.678 3.828.273 4.055-.138 4.217-.546 4.313-.945 4.341-1.33 4.3-1.694 4.192-2.03 4.017-2.336 3.779-2.603 3.482-2.83 3.13-3.013 2.727-3.148 2.283-3.232 1.802-3.267 1.293-3.25.763-3.181.221-3.062-.323-2.896-.864-2.682-1.39-2.428-1.894-2.134-2.37-1.808-2.806-1.452-3.199-1.073-3.542-.679-3.829-.272-4.054.138-4.218.546-4.313.945-4.34 1.33-4.301 1.694-4.191 2.03-4.017 2.335-3.78 2.604-3.481 2.83-3.13 3.013-2.727 3.147-2.283 3.233-1.802 3.267-1.293 3.249-.763 3.181-.221 3.063.323zM111.942-69.949l1.354 2.701.85 2.96.334 3.171-.187 3.333-.706 3.441-1.213 3.497-1.702 3.496-2.163 3.441-2.59 3.33-2.977 3.169-3.316 2.956-3.603 2.697-3.834 2.396-4.004 2.056-4.111 1.685-4.153 1.287-4.129.868-4.04.435-3.888-.003-3.675-.442-3.403-.875-3.077-1.292-2.704-1.691-2.287-2.062-1.835-2.4-1.353-2.701-.851-2.96-.334-3.171.187-3.333.706-3.442 1.213-3.496 1.702-3.496 2.163-3.441 2.59-3.331 2.977-3.168 3.316-2.956 3.604-2.697 3.834-2.396 4.004-2.057 4.11-1.684 4.153-1.287 4.129-.868 4.041-.436 3.888.004 3.674.442 3.403.874 3.078 1.293 2.703 1.69 2.288 2.062z" style="fill:#aec7e8;stroke:none;stroke-width:2;stroke-linecap:butt;stroke-dasharray:none;stroke-linejoin:round;vector-effect:non-scaling-stroke"/><path d="m-30-10-4.387.276-4.317.824-4.18 1.358-3.977 1.871-3.711 2.355-3.387 2.802-3.009 3.204-2.583 3.556-2.118 3.852-1.618 4.086-1.093 4.258-.551 4.36v4.396l.551 4.36 1.093 4.258 1.618 4.086 2.118 3.852 2.583 3.556 3.009 3.204 3.387 2.802 3.711 2.355 3.977 1.871 4.18 1.358 4.317.824L-30 60l4.387-.276 4.317-.824 4.18-1.358 3.977-1.871 3.711-2.355 3.387-2.802 3.009-3.204 2.583-3.556 2.118-3.852 1.618-4.086 1.093-4.258.551-4.36v-4.396l-.551-4.36-1.093-4.258-1.618-4.086-2.118-3.852-2.583-3.556-3.009-3.204-3.387-2.802-3.711-2.355-3.977-1.871-4.18-1.358-4.317-.824zM45-20l-4.387.276-4.317.824-4.18 1.358-3.977 1.871-3.711 2.355-3.387 2.802-3.009 3.204-2.583 3.556L13.331.098l-1.618 4.086-1.093 4.258-.551 4.36v4.396l.551 4.36 1.093 4.258 1.618 4.086 2.118 3.852 2.583 3.556 3.009 3.204 3.387 2.802 3.711 2.355 3.977 1.871 4.18 1.358 4.317.824L45 50l4.387-.276 4.317-.824 4.18-1.358 3.977-1.871 3.712-2.355 3.386-2.802 3.009-3.204 2.584-3.556 2.117-3.852 1.618-4.086 1.093-4.258.551-4.36v-4.396l-.551-4.36-1.093-4.258L76.669.098l-2.117-3.852-2.584-3.556-3.009-3.204-3.386-2.802-3.712-2.355-3.977-1.871-4.18-1.358-4.317-.824z" style="fill:#aec7e8;stroke:none;stroke-width:1;stroke-linecap:butt;stroke-dasharray:none;stroke-linejoin:round;vector-effect:non-scaling-stroke"/><path d="m0-50-6.267.394-6.167 1.177-5.972 1.94-5.682 2.674-5.301 3.364-4.838 4.003-4.299 4.577-3.69 5.08-3.025 5.502-2.312 5.838-1.561 6.082-.787 6.229v6.28l.787 6.229 1.561 6.082 2.312 5.838 3.025 5.502 3.69 5.08 4.299 4.577 4.838 4.003 5.301 3.364 5.682 2.674 5.972 1.94 6.167 1.177L0 50l6.267-.394 6.168-1.177 5.971-1.94 5.682-2.674 5.301-3.364 4.838-4.003 4.299-4.577 3.69-5.08 3.025-5.502 2.312-5.838 1.561-6.082.787-6.229v-6.28l-.787-6.229-1.561-6.082-2.312-5.838-3.025-5.502-3.69-5.08-4.299-4.577-4.838-4.003-5.301-3.364-5.682-2.674-5.971-1.94-6.168-1.177z" style="fill:none;stroke:#000;stroke-width:4;stroke-linecap:butt;stroke-dasharray:none;stroke-linejoin:round;vector-effect:non-scaling-stroke"/><path d="m-40-15-4.387.276-4.317.824-4.18 1.358-3.977 1.871-3.711 2.355-3.387 2.802-3.009 3.204-2.583 3.556-2.118 3.852-1.618 4.086-1.093 4.258-.551 4.36v4.396l.551 4.36 1.093 4.258 1.618 4.086 2.118 3.852 2.583 3.556 3.009 3.204 3.387 2.802 3.711 2.355 3.977 1.871 4.18 1.358 4.317.824L-40 55l4.387-.276 4.317-.824 4.18-1.358 3.977-1.871 3.712-2.355 3.386-2.802 3.009-3.204 2.584-3.556 2.117-3.852 1.618-4.086 1.093-4.258.551-4.36v-4.396l-.551-4.36-1.093-4.258-1.618-4.086-2.117-3.852-2.584-3.556-3.009-3.204-3.386-2.802-3.712-2.355-3.977-1.871-4.18-1.358-4.317-.824zM40-15l-4.387.276-4.317.824-4.18 1.358-3.977 1.871-3.711 2.355-3.387 2.802-3.009 3.204-2.583 3.556-2.118 3.852-1.618 4.086-1.093 4.258-.551 4.36v4.396l.551 4.36 1.093 4.258 1.618 4.086 2.118 3.852 2.583 3.556 3.009 3.204 3.387 2.802 3.711 2.355 3.977 1.871 4.18 1.358 4.317.824L40 55l4.387-.276 4.317-.824 4.18-1.358 3.977-1.871 3.712-2.355 3.386-2.802 3.009-3.204 2.584-3.556 2.117-3.852 1.618-4.086 1.093-4.258.551-4.36v-4.396l-.551-4.36-1.093-4.258-1.618-4.086-2.117-3.852-2.584-3.556-3.009-3.204-3.386-2.802-3.712-2.355-3.977-1.871-4.18-1.358-4.317-.824z" style="fill:none;stroke:#000;stroke-width:4;stroke-linecap:butt;stroke-dasharray:none;stroke-linejoin:round;vector-effect:non-scaling-stroke"/><path d="m0-50-6.267.394-6.167 1.177-5.972 1.94-5.682 2.674-5.301 3.364-4.838 4.003-4.299 4.577-3.69 5.08-3.025 5.502-2.312 5.838-1.561 6.082-.787 6.229v6.28l.787 6.229 1.561 6.082 2.312 5.838 3.025 5.502 3.69 5.08 4.299 4.577 4.838 4.003 5.301 3.364 5.682 2.674 5.972 1.94 6.167 1.177L0 50l6.267-.394 6.168-1.177 5.971-1.94 5.682-2.674 5.301-3.364 4.838-4.003 4.299-4.577 3.69-5.08 3.025-5.502 2.312-5.838 1.561-6.082.787-6.229v-6.28l-.787-6.229-1.561-6.082-2.312-5.838-3.025-5.502-3.69-5.08-4.299-4.577-4.838-4.003-5.301-3.364-5.682-2.674-5.971-1.94-6.168-1.177z" style="fill:#fff;stroke:none;stroke-width:1;stroke-linecap:butt;stroke-dasharray:none;stroke-linejoin:round;vector-effect:non-scaling-stroke"/><path d="m-40-15-4.387.276-4.317.824-4.18 1.358-3.977 1.871-3.711 2.355-3.387 2.802-3.009 3.204-2.583 3.556-2.118 3.852-1.618 4.086-1.093 4.258-.551 4.36v4.396l.551 4.36 1.093 4.258 1.618 4.086 2.118 3.852 2.583 3.556 3.009 3.204 3.387 2.802 3.711 2.355 3.977 1.871 4.18 1.358 4.317.824L-40 55l4.387-.276 4.317-.824 4.18-1.358 3.977-1.871 3.712-2.355 3.386-2.802 3.009-3.204 2.584-3.556 2.117-3.852 1.618-4.086 1.093-4.258.551-4.36v-4.396l-.551-4.36-1.093-4.258-1.618-4.086-2.117-3.852-2.584-3.556-3.009-3.204-3.386-2.802-3.712-2.355-3.977-1.871-4.18-1.358-4.317-.824zM40-15l-4.387.276-4.317.824-4.18 1.358-3.977 1.871-3.711 2.355-3.387 2.802-3.009 3.204-2.583 3.556-2.118 3.852-1.618 4.086-1.093 4.258-.551 4.36v4.396l.551 4.36 1.093 4.258 1.618 4.086 2.118 3.852 2.583 3.556 3.009 3.204 3.387 2.802 3.711 2.355 3.977 1.871 4.18 1.358 4.317.824L40 55l4.387-.276 4.317-.824 4.18-1.358 3.977-1.871 3.712-2.355 3.386-2.802 3.009-3.204 2.584-3.556 2.117-3.852 1.618-4.086 1.093-4.258.551-4.36v-4.396l-.551-4.36-1.093-4.258-1.618-4.086-2.117-3.852-2.584-3.556-3.009-3.204-3.386-2.802-3.712-2.355-3.977-1.871-4.18-1.358-4.317-.824z" style="fill:#fff;stroke:none;stroke-width:1;stroke-linecap:butt;stroke-dasharray:none;stroke-linejoin:round;vector-effect:non-scaling-stroke"/><path d="m0-50-6.267.394-6.167 1.177-5.972 1.94-5.682 2.674-5.301 3.364-4.838 4.003-4.299 4.577-3.69 5.08-3.025 5.502-2.312 5.838-1.561 6.082-.787 6.229v6.28l.787 6.229 1.561 6.082 2.312 5.838 3.025 5.502 3.69 5.08 4.299 4.577 4.838 4.003 5.301 3.364 5.682 2.674 5.972 1.94 6.167 1.177L0 50l6.267-.394 6.168-1.177 5.971-1.94 5.682-2.674 5.301-3.364 4.838-4.003 4.299-4.577 3.69-5.08 3.025-5.502 2.312-5.838 1.561-6.082.787-6.229v-6.28l-.787-6.229-1.561-6.082-2.312-5.838-3.025-5.502-3.69-5.08-4.299-4.577-4.838-4.003-5.301-3.364-5.682-2.674-5.971-1.94-6.168-1.177z" style="fill:none;stroke:#7f7f7f;stroke-width:2;stroke-linecap:butt;stroke-dasharray:5,5;stroke-linejoin:round;vector-effect:non-scaling-stroke;opacity:.5"/><path d="m-40-15-4.387.276-4.317.824-4.18 1.358-3.977 1.871-3.711 2.355-3.387 2.802-3.009 3.204-2.583 3.556-2.118 3.852-1.618 4.086-1.093 4.258-.551 4.36v4.396l.551 4.36 1.093 4.258 1.618 4.086 2.118 3.852 2.583 3.556 3.009 3.204 3.387 2.802 3.711 2.355 3.977 1.871 4.18 1.358 4.317.824L-40 55l4.387-.276 4.317-.824 4.18-1.358 3.977-1.871 3.712-2.355 3.386-2.802 3.009-3.204 2.584-3.556 2.117-3.852 1.618-4.086 1.093-4.258.551-4.36v-4.396l-.551-4.36-1.093-4.258-1.618-4.086-2.117-3.852-2.584-3.556-3.009-3.204-3.386-2.802-3.712-2.355-3.977-1.871-4.18-1.358-4.317-.824zM40-15l-4.387.276-4.317.824-4.18 1.358-3.977 1.871-3.711 2.355-3.387 2.802-3.009 3.204-2.583 3.556-2.118 3.852-1.618 4.086-1.093 4.258-.551 4.36v4.396l.551 4.36 1.093 4.258 1.618 4.086 2.118 3.852 2.583 3.556 3.009 3.204 3.387 2.802 3.711 2.355 3.977 1.871 4.18 1.358 4.317.824L40 55l4.387-.276 4.317-.824 4.18-1.358 3.977-1.871 3.712-2.355 3.386-2.802 3.009-3.204 2.584-3.556 2.117-3.852 1.618-4.086 1.093-4.258.551-4.36v-4.396l-.551-4.36-1.093-4.258-1.618-4.086-2.117-3.852-2.584-3.556-3.009-3.204-3.386-2.802-3.712-2.355-3.977-1.871-4.18-1.358-4.317-.824z" style="fill:none;stroke:#7f7f7f;stroke-width:2;stroke-linecap:butt;stroke-dasharray:5,5;stroke-linejoin:round;vector-effect:non-scaling-stroke;opacity:.5"/><path d="m-106.79-77.588-1.539 2.601-1.054 2.893-.555 3.14-.046 3.338.464 3.482.967 3.573 1.453 3.606 1.918 3.583 2.351 3.504 2.749 3.368 3.102 3.18 3.407 2.942 3.657 2.657 3.851 2.331 3.983 1.968 4.053 1.573 4.058 1.154 4.001.716 3.879.268 3.696-.185 3.455-.635 3.161-1.074 2.815-1.498L-50.539-33l1.998-2.267 1.538-2.6 1.055-2.894.555-3.14.046-3.337-.464-3.483-.967-3.573-1.453-3.606-1.918-3.583-2.352-3.503-2.748-3.369-3.102-3.18-3.407-2.942-3.657-2.657-3.851-2.331-3.983-1.967-4.053-1.573-4.059-1.154-4-.717-3.879-.268-3.696.185-3.456.635-3.16 1.075-2.815 1.498-2.426 1.897zM-40.79-125.539l-2.773 1.199-2.554 1.721-2.295 2.214-1.998 2.673-1.672 3.091-1.318 3.458-.944 3.772-.555 4.026-.156 4.216.244 4.341.64 4.396 1.027 4.383 1.397 4.299 1.745 4.149 2.066 3.933 2.354 3.655 2.605 3.319 2.815 2.931 2.981 2.497 3.099 2.023 3.169 1.518 3.188.988 3.158.442 3.078-.109 2.948-.659 2.773-1.2 2.554-1.72 2.294-2.215 1.999-2.673 1.672-3.09 1.318-3.459.944-3.772.554-4.026.157-4.216-.244-4.341-.64-4.396-1.027-4.382-1.397-4.3-1.745-4.149-2.066-3.933-2.354-3.655-2.605-3.319-2.815-2.931-2.981-2.497-3.099-2.023-3.169-1.517-3.188-.988-3.158-.443-3.078.109zM40.79-125.539l2.773 1.199 2.554 1.721 2.295 2.214 1.998 2.673 1.672 3.091 1.318 3.458.944 3.772.555 4.026.156 4.216-.243 4.341-.641 4.396-1.026 4.383-1.398 4.299-1.745 4.149-2.066 3.933-2.354 3.655-2.605 3.319-2.815 2.931-2.981 2.497-3.099 2.023-3.169 1.518-3.188.988-3.158.442-3.077-.109-2.949-.659-2.773-1.2-2.554-1.72-2.294-2.215-1.999-2.673-1.672-3.09-1.318-3.459-.944-3.772-.554-4.026-.157-4.216.244-4.341.64-4.396 1.027-4.382 1.397-4.3 1.745-4.149 2.066-3.933 2.354-3.655 2.605-3.319 2.816-2.931 2.98-2.497 3.099-2.023 3.169-1.517 3.189-.988 3.157-.443 3.078.109zM106.79-77.588l1.539 2.601 1.054 2.893.555 3.14.046 3.338-.464 3.482-.967 3.573-1.453 3.606-1.918 3.583-2.351 3.504-2.749 3.368-3.102 3.18-3.407 2.942-3.657 2.657-3.851 2.331-3.983 1.968-4.053 1.573-4.058 1.154-4.001.716-3.878.268-3.697-.185-3.455-.635-3.161-1.074-2.815-1.498L50.539-33l-1.998-2.267-1.538-2.6-1.055-2.894-.555-3.14-.045-3.337.464-3.483.966-3.573 1.453-3.606 1.918-3.583 2.352-3.503 2.748-3.369 3.102-3.18 3.407-2.942 3.657-2.657 3.851-2.331 3.983-1.967 4.053-1.573 4.059-1.154 4-.717 3.879-.268 3.696.185 3.456.635 3.16 1.075 2.815 1.498 2.426 1.897z" style="fill:none;stroke:#000;stroke-width:2;stroke-linecap:butt;stroke-dasharray:none;stroke-linejoin:round;vector-effect:non-scaling-stroke"/><path d="m48.541-35.267-.68-.918-.698-.904-.714-.892-.732-.877-.748-.863-.764-.849-.781-.835-.796-.819-.812-.804-.826-.788-.842-.773-.856-.756-.871-.74-.884-.723-.898-.706-.911-.689-.925-.672-.936-.653-.949-.636-.961-.618-.973-.599-.984-.58-.995-.562L28-53.066l-1.015-.523-1.025-.504-1.035-.485-1.044-.465-1.052-.444-1.06-.425-1.069-.404-1.076-.384-1.083-.363-1.09-.343-1.096-.322-1.102-.301-1.107-.28-1.113-.258-1.118-.238-1.121-.216-1.126-.195-1.129-.173-1.132-.152-1.135-.13-1.137-.109-1.14-.087-1.14-.065-1.142-.043-1.142-.022H-.571l-1.142.022-1.142.043-1.14.065-1.139.087-1.138.109-1.135.13-1.132.152-1.129.173-1.126.195-1.121.216-1.118.238-1.112.258-1.108.28-1.102.301-1.096.322-1.09.343-1.083.363-1.076.384-1.068.404-1.061.425-1.052.444-1.044.465-1.034.485-1.026.504-1.015.523-1.005.543-.995.562-.984.58-.972.599-.961.618-.95.636-.936.653-.925.672-.911.689-.898.706-.884.723-.871.74-.856.756-.841.773-.827.788-.812.804-.796.819-.78.835-.765.849-.748.863-.731.877-.715.892-.698.904-.68.918" style="fill:none;stroke:#7f7f7f;stroke-width:2;stroke-linecap:butt;stroke-dasharray:5,5;stroke-linejoin:round;vector-effect:non-scaling-stroke;opacity:.5"/><path d="m77.666-56.427-1.089-1.469-1.116-1.447-1.143-1.426-1.171-1.404-1.197-1.381-1.223-1.359-1.248-1.335-1.274-1.31-1.299-1.287-1.323-1.261-1.346-1.236-1.37-1.21-1.393-1.184-1.415-1.157-1.437-1.13-1.458-1.102-1.478-1.074-1.499-1.046-1.519-1.018-1.538-.988-1.556-.958L48-83.138l-1.592-.899-1.608-.869-1.625-.837-1.64-.807-1.655-.775-1.67-.743-1.684-.712-1.696-.679-1.71-.647-1.721-.614-1.733-.581-1.744-.549-1.754-.515-1.763-.481-1.772-.448-1.78-.414-1.788-.38-1.795-.346-1.801-.311-1.807-.278-1.811-.243-1.816-.208-1.82-.174-1.822-.139-1.825-.104-1.827-.07-1.827-.035H-.914l-1.827.035-1.827.07-1.825.104-1.822.139-1.82.174-1.816.208-1.811.243-1.807.278-1.801.311-1.795.346-1.788.38-1.78.414-1.772.448-1.763.481-1.754.515-1.744.549-1.732.581-1.722.614-1.709.647-1.697.679-1.684.712-1.67.743-1.655.775-1.64.807-1.625.837-1.608.869-1.592.899-1.574.929-1.556.958-1.538.988-1.519 1.018-1.498 1.046-1.479 1.074-1.458 1.102-1.437 1.13-1.415 1.157-1.393 1.184-1.37 1.21-1.346 1.236-1.323 1.261-1.299 1.287-1.273 1.31-1.249 1.335-1.223 1.359-1.197 1.381-1.171 1.404-1.143 1.426-1.116 1.447-1.089 1.469M0 0l-29.666-91.301M0 0l29.666-91.301" style="fill:none;stroke:#7f7f7f;stroke-width:2;stroke-linecap:butt;stroke-dasharray:5,5;stroke-linejoin:round;vector-effect:non-scaling-stroke;opacity:.5"/></svg>