<?xml version="1.0" standalone="no"?>
<!DOCTYPE svg PUBLIC "-//W3C//DTD SVG 20010904//EN"
 "http://www.w3.org/TR/2001/REC-SVG-20010904/DTD/svg10.dtd">
<svg version="1.0" xmlns="http://www.w3.org/2000/svg"
 width="400.000000pt" height="400.000000pt" viewBox="0 0 400.000000 400.000000"
 preserveAspectRatio="xMidYMid meet">
<metadata>
Created by potrace 1.14, written by Peter Selinger 2001-2017
</metadata>
<g transform="translate(0.000000,400.000000) scale(0.100000,-0.100000)"
fill="#000000" stroke="none">
<path d="M1522 3320 c-95 -11 -156 -42 -204 -106 -113 -148 -107 -418 14 -633
47 -82 140 -176 210 -211 34 -16 69 -30 79 -30 12 0 16 -6 12 -20 -5 -20 -5
-20 43 -1 27 10 67 24 89 31 55 16 144 86 183 144 49 74 66 143 66 271 0 86
-5 126 -23 185 -49 161 -143 290 -250 344 -61 31 -116 38 -219 26z m-54 -52
c-121 -99 -153 -385 -66 -593 63 -151 180 -268 293 -296 25 -6 21 -7 -23 -8
-120 -2 -243 94 -327 257 l-28 53 22 15 c12 9 19 20 15 25 -4 6 -11 5 -20 -2
-22 -18 -32 -2 -49 77 -45 213 11 399 140 467 38 20 66 23 43 5z"/>
<path d="M2395 3299 c-115 -39 -212 -136 -279 -279 -52 -110 -70 -189 -70
-305 0 -117 17 -186 66 -259 18 -27 37 -57 42 -67 6 -9 46 -28 90 -42 73 -24
88 -25 158 -17 127 15 219 75 308 203 154 218 171 527 37 656 -68 66 -202 131
-266 131 -14 -1 -53 -10 -86 -21z m163 -27 c8 -6 -8 -14 -46 -25 -144 -40
-281 -197 -341 -392 -47 -150 -37 -308 24 -410 19 -30 30 -55 26 -55 -5 0 -29
22 -54 49 -74 80 -106 226 -82 385 6 40 10 46 31 46 29 0 32 16 4 23 l-20 5
21 54 c79 202 219 328 363 328 34 0 67 -4 74 -8z"/>
<path d="M750 2811 c-51 -16 -87 -41 -161 -113 -88 -85 -105 -125 -97 -237 15
-200 229 -426 471 -496 73 -21 187 -24 247 -7 72 21 134 72 164 136 15 31 33
56 40 56 16 0 51 38 43 47 -4 3 -17 -2 -28 -13 -22 -19 -22 -19 -14 5 4 12 7
49 7 81 0 189 -154 397 -367 495 -107 50 -231 68 -305 46z m-174 -201 c-9 -60
18 -172 60 -248 46 -84 167 -204 254 -255 129 -75 292 -102 384 -63 34 14 37
14 25 0 -44 -53 -192 -79 -301 -54 -318 75 -563 414 -447 620 13 22 25 40 27
40 3 0 2 -18 -2 -40z"/>
<path d="M3111 2745 c-130 -29 -277 -117 -371 -222 -28 -32 -70 -96 -93 -142
-39 -79 -42 -89 -41 -165 1 -45 3 -88 5 -96 16 -59 115 -156 196 -192 175 -78
475 23 632 212 71 86 103 157 109 244 4 65 1 80 -27 143 -17 39 -31 76 -31 81
0 5 -18 29 -40 54 -72 82 -202 114 -339 83z m223 -41 c41 -14 124 -79 114 -89
-2 -2 -30 6 -63 17 -116 39 -294 9 -432 -74 -172 -102 -304 -296 -291 -427 5
-56 -9 -41 -22 24 -22 107 28 239 132 351 49 52 63 62 78 54 21 -11 34 -2 20
16 -8 9 -3 18 16 33 38 30 143 80 200 96 69 19 191 18 248 -1z"/>
<path d="M1900 2400 c-8 -5 -12 -12 -8 -15 8 -8 58 5 58 16 0 12 -31 11 -50
-1z"/>
<path d="M2020 2400 c0 -5 16 -10 35 -10 19 0 35 5 35 10 0 6 -16 10 -35 10
-19 0 -35 -4 -35 -10z"/>
<path d="M1763 2273 c4 -14 -14 -27 -82 -61 -146 -72 -286 -221 -336 -359 -17
-47 -22 -52 -77 -75 -332 -136 -422 -550 -177 -812 79 -85 158 -125 329 -166
193 -46 290 -36 427 46 44 26 57 29 153 30 60 1 131 8 167 17 l62 16 73 -39
c86 -46 148 -62 243 -61 242 0 419 146 515 426 27 78 27 201 0 287 -48 155
-190 285 -349 319 -48 10 -52 14 -81 67 -72 135 -185 244 -319 309 -62 30 -78
42 -75 56 6 20 -14 24 -22 4 -4 -11 -16 -11 -67 0 -80 16 -215 16 -294 -1 -52
-11 -63 -11 -67 0 -8 20 -28 17 -23 -3z m370 -32 c16 -6 38 -11 50 -11 12 0
43 -11 69 -25 26 -14 54 -25 63 -25 8 0 32 -16 54 -35 21 -19 42 -35 47 -35
13 -1 54 -37 54 -47 0 -5 20 -28 45 -51 25 -23 45 -49 45 -56 0 -8 12 -28 26
-46 32 -37 51 -109 32 -121 -19 -12 -6 -19 50 -28 27 -4 62 -17 77 -29 15 -12
35 -22 45 -22 24 0 140 -119 157 -162 8 -21 19 -38 23 -38 9 0 20 -37 26 -87
2 -17 8 -43 14 -57 12 -32 -2 -162 -22 -201 -8 -17 -18 -42 -22 -57 -3 -15
-15 -35 -25 -45 -10 -10 -28 -34 -38 -53 -11 -19 -30 -40 -42 -46 -12 -6 -38
-26 -58 -43 -19 -17 -38 -31 -41 -32 -24 -2 -44 -9 -74 -23 -42 -20 -186 -24
-264 -8 -28 6 -68 22 -89 36 -21 14 -44 26 -51 26 -7 0 -29 18 -50 40 -36 38
-73 47 -39 10 16 -18 15 -20 -16 -35 -26 -14 -62 -17 -180 -18 -91 0 -153 4
-161 10 -7 6 -29 15 -49 21 -34 9 -39 7 -73 -24 -21 -19 -40 -34 -44 -35 -23
-2 -43 -9 -74 -23 -24 -12 -64 -17 -124 -18 -107 -1 -185 14 -221 41 -14 12
-32 21 -40 21 -9 0 -35 20 -60 45 -24 25 -46 45 -49 45 -10 0 -43 45 -44 58 0
7 -11 29 -25 50 -13 21 -27 56 -30 79 -3 23 -9 53 -14 67 -14 34 2 178 23 207
9 13 16 33 16 44 0 12 16 40 35 62 19 23 35 45 35 50 0 5 11 20 25 33 14 13
25 20 25 16 0 -5 18 8 39 27 22 20 59 41 83 47 24 7 48 16 55 22 7 5 16 7 22
4 5 -4 15 18 21 48 6 30 22 67 35 83 14 15 25 35 25 44 0 9 20 36 45 60 25 24
47 51 50 60 3 8 23 25 45 38 22 12 43 28 47 34 10 15 63 50 63 41 0 -3 20 6
44 20 24 14 58 28 77 31 19 3 45 10 59 15 38 14 56 15 154 14 50 -1 104 -7
119 -13z"/>
<path d="M1811 2130 c10 -27 29 -42 29 -22 -1 24 -14 52 -26 52 -10 0 -11 -6
-3 -30z"/>
<path d="M2166 2138 c-8 -31 -7 -38 3 -38 5 0 14 14 20 30 8 24 7 30 -3 30 -8
0 -16 -10 -20 -22z"/>
<path d="M1851 2000 c10 -27 29 -42 29 -22 -1 24 -14 52 -26 52 -10 0 -11 -6
-3 -30z"/>
<path d="M2126 2004 c-4 -15 -4 -29 -1 -32 8 -8 25 19 25 41 0 26 -17 20 -24
-9z"/>
<path d="M1896 1902 c-8 -14 3 -62 15 -62 11 0 11 27 0 54 -5 13 -10 16 -15 8z"/>
<path d="M2086 1888 c-8 -32 -7 -48 3 -48 13 0 24 51 13 62 -6 6 -12 0 -16
-14z"/>
<path d="M1400 1790 c-8 -5 -11 -12 -8 -16 10 -9 58 4 58 16 0 13 -30 13 -50
0z"/>
<path d="M2490 1790 c-8 -5 -11 -12 -8 -16 10 -9 58 4 58 16 0 13 -30 13 -50
0z"/>
<path d="M1520 1781 c0 -12 48 -23 62 -15 8 5 5 10 -8 15 -27 11 -54 11 -54 0z"/>
<path d="M1936 1771 c-9 -14 12 -63 23 -56 6 3 6 17 -1 35 -11 32 -14 35 -22
21z"/>
<path d="M2042 1751 c-7 -19 -7 -33 -1 -36 13 -8 32 46 21 57 -6 6 -14 -3 -20
-21z"/>
<path d="M2360 1760 c-8 -5 -12 -12 -8 -15 8 -8 58 5 58 16 0 12 -31 11 -50
-1z"/>
<path d="M1650 1742 c0 -11 51 -35 58 -27 7 7 -29 34 -45 35 -7 0 -13 -4 -13
-8z"/>
<path d="M2252 1700 c-25 -21 -28 -30 -9 -30 18 0 51 36 40 43 -4 3 -18 -3
-31 -13z"/>
<path d="M2660 1680 c0 -18 5 -30 13 -30 9 0 12 10 9 30 -2 17 -8 30 -13 30
-5 0 -9 -13 -9 -30z"/>
<path d="M1320 1690 c0 -8 -3 -25 -6 -37 -4 -14 -2 -23 5 -23 16 0 26 49 12
63 -8 8 -11 7 -11 -3z"/>
<path d="M1766 1672 c-3 -5 5 -19 18 -31 13 -13 26 -18 30 -13 3 5 -5 19 -18
31 -13 13 -26 18 -30 13z"/>
<path d="M1976 1642 c-8 -14 11 -62 24 -62 6 0 15 12 20 26 11 29 3 54 -11 33
-8 -12 -10 -12 -18 0 -5 8 -11 9 -15 3z"/>
<path d="M2155 1604 c-17 -26 -15 -41 4 -29 6 3 15 15 21 25 16 30 -6 33 -25
4z"/>
<path d="M1850 1565 c0 -12 24 -55 32 -55 11 0 10 17 -2 41 -9 17 -30 27 -30
14z"/>
<path d="M2670 1540 c0 -16 5 -30 10 -30 6 0 10 14 10 30 0 17 -4 30 -10 30
-5 0 -10 -13 -10 -30z"/>
<path d="M1310 1530 c0 -21 5 -30 16 -30 11 0 14 5 10 16 -3 9 -6 22 -6 30 0
8 -4 14 -10 14 -5 0 -10 -13 -10 -30z"/>
<path d="M2090 1484 c-6 -15 -8 -29 -6 -31 8 -8 23 6 29 27 8 31 -12 35 -23 4z"/>
<path d="M1908 1445 c-8 -8 4 -65 13 -65 12 0 12 57 0 64 -4 3 -10 3 -13 1z"/>
<path d="M2646 1414 c-4 -15 -4 -29 -1 -32 8 -8 25 19 25 41 0 26 -17 20 -24
-9z"/>
<path d="M1337 1424 c-8 -13 4 -64 14 -64 11 0 11 41 0 59 -5 7 -11 9 -14 5z"/>
<path d="M2060 1346 c0 -20 5 -36 10 -36 6 0 10 13 10 29 0 17 -4 33 -10 36
-6 4 -10 -8 -10 -29z"/>
<path d="M1920 1280 c0 -16 5 -30 10 -30 6 0 10 14 10 30 0 17 -4 30 -10 30
-5 0 -10 -13 -10 -30z"/>
<path d="M2600 1291 c-12 -24 -13 -41 -2 -41 8 0 32 43 32 55 0 13 -21 3 -30
-14z"/>
<path d="M1380 1287 c0 -18 27 -53 35 -46 7 8 -15 59 -27 59 -4 0 -8 -6 -8
-13z"/>
<path d="M2068 1210 c2 -16 10 -30 16 -30 8 0 11 11 8 30 -2 17 -10 30 -16 30
-8 0 -11 -11 -8 -30z"/>
<path d="M2527 1174 c-25 -33 -13 -44 15 -16 14 14 19 25 13 31 -6 6 -17 0
-28 -15z"/>
<path d="M1450 1173 c1 -14 27 -43 39 -43 16 0 13 15 -7 33 -20 18 -32 22 -32
10z"/>
<path d="M1891 1150 c-8 -24 -7 -30 3 -30 12 0 25 28 26 53 0 19 -19 4 -29
-23z"/>
<path d="M2115 1080 c9 -17 20 -28 25 -25 13 8 -10 55 -27 55 -11 0 -11 -6 2
-30z"/>
<path d="M2432 1074 c-30 -21 -17 -38 14 -18 23 16 32 34 16 34 -4 0 -18 -7
-30 -16z"/>
<path d="M1540 1074 c0 -11 45 -42 53 -37 11 7 -22 43 -40 43 -7 0 -13 -3 -13
-6z"/>
<path d="M1827 1035 c-21 -30 -6 -42 18 -15 11 13 15 24 9 29 -5 6 -16 0 -27
-14z"/>
<path d="M2323 998 c-24 -11 -31 -28 -12 -28 17 0 49 20 49 30 0 12 -9 12 -37
-2z"/>
<path d="M1650 992 c0 -12 51 -34 59 -27 7 8 -28 35 -46 35 -7 0 -13 -4 -13
-8z"/>
<path d="M2410 2282 c0 -12 49 -37 57 -29 8 8 -26 36 -44 37 -7 0 -13 -4 -13
-8z"/>
<path d="M1532 2264 c-30 -21 -17 -38 14 -18 23 16 32 34 16 34 -4 0 -18 -7
-30 -16z"/>
<path d="M2520 2201 c0 -12 46 -41 54 -34 8 9 -24 43 -41 43 -7 0 -13 -4 -13
-9z"/>
</g>
</svg>
